# xmcd CD database file
#
# Track frame offsets:
#	150
#	19190
#	35775
#	55530
#	71372
#	91645
#	105555
#	120010
#	131130
#	151965
#	169022
#	188617
#	204885
#	222725
#
# Disc length: 3149 seconds
#
# Revision: 6
# Processed by: cddbd v1.5.2PL0 Copyright (c) Steve Scherf et al.
# Submitted via: CDex 1.51
#
DISCID=b00c4b0e
DTITLE=Willie Nelson - It Always Will Be
DYEAR=2004
DGENRE=Country
TTITLE0=It Always Will Be
TTITLE1=Picture in a Frame
TTITLE2=The Way You See Me
TTITLE3=Be That as it May (With Paula Nelson)
TTITLE4=You Were It
TTITLE5=Big Booty
TTITLE6=I Didnt Come Here (And I Aint Leavin)
TTITLE7=My Broken Heart Belongs to You
TTITLE8=Dreams Come True (With Norah Jones)
TTITLE9=Overtime (With Lucinda Williams)
TTITLE10=Tired
TTITLE11=Loves The One And Only Thing
TTITLE12=Texas
TTITLE13=Midnight Rider
EXTD=YEAR: 2004
EXTT0=
EXTT1=
EXTT2=
EXTT3=
EXTT4=
EXTT5=
EXTT6=
EXTT7=
EXTT8=
EXTT9=
EXTT10=
EXTT11=
EXTT12=
EXTT13=
PLAYORDER=
